<?xml version="1.0" encoding="utf-8"?>
<!-- Generator: Adobe Illustrator 19.0.0, SVG Export Plug-In . SVG Version: 6.00 Build 0)  -->
<!DOCTYPE svg PUBLIC "-//W3C//DTD SVG 1.1//EN" "http://www.w3.org/Graphics/SVG/1.1/DTD/svg11.dtd">
<svg version="1.1" xmlns="http://www.w3.org/2000/svg" xmlns:xlink="http://www.w3.org/1999/xlink" x="0px" y="0px"
	 viewBox="0 0 436.5 418.6" style="enable-background:new 0 0 436.5 418.6;" xml:space="preserve">
<style type="text/css">
	.st0{fill:#8DC63F;}
	.st1{fill:#ED1C24;}
	.st2{display:none;fill:#ED1C24;}
</style>
<g id="Layer_1">
</g>
<g id="Layer_2">
	<g id="XMLID_236_">
		<path id="XMLID_265_" class="st0" d="M436.5,250.7H0c0,0,73.9-79.7,217.1-79.7C372.4,171,436.5,250.7,436.5,250.7z"/>
		<g id="XMLID_252_">
			<path id="XMLID_263_" d="M25.8,179.4v8c0,19.1,3.3,25.2,13.3,25.2c7.8,0,11.6-6.4,11.6-18.3c0-12.2-3.1-19.4-15.8-36.3
				l-12.7-18.8C6.4,115.4,1.1,102.6,1.1,86.3c0-24.4,14.7-39.9,38-39.9c17.5,0,30.2,10,33.8,26.9c1.4,6.9,1.4,7.8,1.4,23L49,98.7
				c0-9.4-0.3-12.7-0.8-16.6c-0.8-7.5-5-11.6-10.8-11.6c-6.9,0-10.8,6.1-10.8,17.2c0,11.4,1.1,13.9,18.3,39.6l13,18.8
				c11.9,17.5,18.6,36.3,18.6,52.1c0,24.7-13.6,38.5-37.7,38.5c-13.8,0-23.5-4.4-30.8-14.1c-6.1-8.3-8-16.1-8-32.1
				c0-3.9,0-5.5,0.3-10L25.8,179.4z"/>
			<path id="XMLID_260_" d="M160.2,197.1c0,25.5-11.1,38.8-32.7,38.8c-21.9,0-33-13.3-33-38.8v-64c0-25.5,11.1-38.8,33-38.8
				c21.6,0,32.7,13.3,32.7,38.8V197.1z M118.6,201c0,8,3,12.7,8.9,12.7c5.5,0,8.6-4.7,8.6-12.7v-71.8c0-8-3-12.7-8.6-12.7
				c-5.8,0-8.9,4.7-8.9,12.7V201z"/>
			<path id="XMLID_258_" d="M254.1,168.3c0.3,10,0.6,14.4,0.6,19.4c0,33-12.2,49-37.4,49c-24.1,0-36.3-15-36.3-44.3V90.7
				c0-29.4,12.2-44.3,36.3-44.3c24.9,0,37.4,16.1,37.4,48.2c0,4.4,0,7.5-0.6,14.7h-25.8c0.6-5.8,0.6-8.3,0.6-12.7
				c0-20.5-2.5-26-11.6-26c-8.3,0-10.5,4.2-10.5,20.2v101.7c0,16.1,2.2,20.2,10.5,20.2c9.1,0,11.6-5.5,11.6-25.2
				c0-5.5-0.3-10.5-0.6-19.1H254.1z"/>
			<path id="XMLID_255_" d="M296.2,233.9h-24.9l25.2-184.8h33.3l24.1,184.8h-25.2l-4.7-41.6h-23.3L296.2,233.9z M312.3,82.7
				l-8.9,85.6h17.7L312.3,82.7z"/>
			<path id="XMLID_253_" d="M372.4,49.1h25.8v160.7h36.6v24.1h-62.3V49.1z"/>
		</g>
		<rect id="XMLID_251_" x="0" y="257.9" class="st1" width="436.5" height="62.3"/>
		<polygon id="XMLID_250_" class="st2" points="127.3,0 140.8,27.3 170.9,31.7 149.1,52.9 154.3,83 127.3,68.8 100.4,83 105.5,52.9 
			83.7,31.7 113.8,27.3 		"/>
		<g id="XMLID_237_">
			<path id="XMLID_248_" d="M30.8,391c0.1,4,0.2,5.8,0.2,7.8c0,13.3-4.9,19.8-15.1,19.8c-9.7,0-14.7-6-14.7-17.9v-41.1
				c0-11.9,4.9-17.9,14.7-17.9c10.1,0,15.1,6.5,15.1,19.5c0,1.8,0,3-0.2,5.9H20.4c0.2-2.3,0.2-3.4,0.2-5.1c0-8.3-1-10.5-4.7-10.5
				c-3.4,0-4.3,1.7-4.3,8.2v41.1c0,6.5,0.9,8.2,4.3,8.2c3.7,0,4.7-2.2,4.7-10.2c0-2.2-0.1-4.2-0.2-7.7H30.8z"/>
			<path id="XMLID_246_" d="M81,342.9h11.3l5.7,27.5l5.7-27.5h11L103,386.5v31H92.6v-31L81,342.9z"/>
			<path id="XMLID_244_" d="M194.6,391c0.1,4,0.2,5.8,0.2,7.8c0,13.3-4.9,19.8-15.1,19.8c-9.7,0-14.7-6-14.7-17.9v-41.1
				c0-11.9,4.9-17.9,14.7-17.9c10.1,0,15.1,6.5,15.1,19.5c0,1.8,0,3-0.2,5.9h-10.4c0.2-2.3,0.2-3.4,0.2-5.1c0-8.3-1-10.5-4.7-10.5
				c-3.4,0-4.3,1.7-4.3,8.2v41.1c0,6.5,0.9,8.2,4.3,8.2c3.7,0,4.7-2.2,4.7-10.2c0-2.2-0.1-4.2-0.2-7.7H194.6z"/>
			<path id="XMLID_242_" d="M247.9,342.9h10.4v64.9h14.8v9.7h-25.2V342.9z"/>
			<path id="XMLID_240_" d="M349.2,342.9v9.7h-14.8v20.9h10.3v9.7h-10.3v24.5h15.7v9.7h-26.1v-74.6H349.2z"/>
			<path id="XMLID_238_" d="M411.7,395.5v3.2c0,7.7,1.3,10.2,5.4,10.2c3.1,0,4.7-2.6,4.7-7.4c0-4.9-1.2-7.8-6.4-14.7l-5.1-7.6
				c-6.4-9.6-8.5-14.8-8.5-21.4c0-9.8,5.9-16.1,15.3-16.1c7,0,12.2,4,13.7,10.9c0.6,2.8,0.6,3.1,0.6,9.3l-10.2,1
				c0-3.8-0.1-5.1-0.3-6.7c-0.3-3-2-4.7-4.4-4.7c-2.8,0-4.4,2.5-4.4,6.9c0,4.6,0.4,5.6,7.4,16l5.3,7.6c4.8,7,7.5,14.7,7.5,21
				c0,10-5.5,15.5-15.2,15.5c-5.6,0-9.5-1.8-12.4-5.7c-2.5-3.4-3.3-6.5-3.3-13c0-1.6,0-2.2,0.1-4L411.7,395.5z"/>
		</g>
	</g>
</g>
</svg>
